<?xml version="1.0" encoding="UTF-8"?>
<!DOCTYPE svg PUBLIC "-//W3C//DTD SVG 1.1//EN" "http://www.w3.org/Graphics/SVG/1.1/DTD/svg11.dtd">
<!-- Creator: CorelDRAW 2021 (64 Bit) -->
<svg xmlns="http://www.w3.org/2000/svg" xml:space="preserve" width="66px" height="82px" version="1.1" style="shape-rendering:geometricPrecision; text-rendering:geometricPrecision; image-rendering:optimizeQuality; fill-rule:evenodd; clip-rule:evenodd"
viewBox="0 0 2.218 2.778"
 xmlns:xlink="http://www.w3.org/1999/xlink"
 xmlns:xodm="http://www.corel.com/coreldraw/odm/2003">
 <defs>
  <style type="text/css">
   <![CDATA[
    .fil1 {fill:black}
    .fil4 {fill:#010205}
    .fil13 {fill:#040302}
    .fil9 {fill:#135653}
    .fil5 {fill:#17635C}
    .fil11 {fill:#2A7775}
    .fil17 {fill:#2B8F72}
    .fil6 {fill:#348D85}
    .fil0 {fill:#379A7D}
    .fil3 {fill:#5AA49A}
    .fil7 {fill:#89EFB7}
    .fil8 {fill:#A7E5DA}
    .fil20 {fill:#B6BFE1}
    .fil16 {fill:#C8E5DD}
    .fil19 {fill:#E6E8E6}
    .fil18 {fill:#F191A6}
    .fil14 {fill:#F9C8CF}
    .fil2 {fill:#FAF9F6}
    .fil15 {fill:#FBB3CF}
    .fil12 {fill:#FBECEB}
    .fil10 {fill:#FBFDFD}
   ]]>
  </style>
 </defs>
 <g id="Camada_x0020_1">
  <metadata id="CorelCorpID_0Corel-Layer"/>
  <path class="fil0" d="M0 2.678c0.02,0.106 0.445,0.106 0.59,0.097 0.135,-0.009 0.182,-0.031 0.325,-0.018 0.216,0.02 0.487,0.013 0.706,0.005 0.088,-0.004 0.597,-0.018 0.597,-0.122 -0.022,-0.048 -0.067,-0.025 -0.108,-0.058 -0.127,0.121 -0.164,0.093 -0.341,0.094 -0.141,0.001 -0.284,0.002 -0.426,0 -0.061,-0.001 -0.134,0.002 -0.187,-0.032 -0.051,-0.032 -0.126,-0.035 -0.187,-0.035 -0.063,-0.027 -0.098,-0.041 -0.185,-0.068 -0.021,-0.001 -0.035,-0.002 -0.054,-0.002 -0.127,0.003 -0.73,-0.032 -0.73,0.139z"/>
  <path class="fil1" d="M0.795 0.859c0.022,0.004 0.015,0.001 0.039,0.015 0.011,0.007 0.02,0.012 0.03,0.021 0.018,0.015 0.042,0.037 0.057,0.058 0.087,0.109 0.11,0.424 0.131,0.571 0.031,0.209 0.059,0.42 0.093,0.628 0.015,0.107 0.066,0.255 -0.034,0.329 -0.069,0.05 -0.283,0.068 -0.373,0.08 -0.08,0.011 -0.324,0.059 -0.386,0.038 -0.123,-0.04 -0.113,-0.201 -0.133,-0.308 -0.012,-0.164 -0.054,-0.372 -0.08,-0.539 -0.025,-0.164 -0.074,-0.387 -0.08,-0.547 -0.004,-0.137 0.096,-0.296 0.237,-0.313 0.089,-0.01 0.183,-0.024 0.271,-0.037 0.069,-0.01 0.171,-0.048 0.228,0.004zm-0.577 -0.33c0.018,-0.018 0.408,-0.074 0.446,-0.055 0.016,0.051 0.049,0.243 0.044,0.291l-0.12 0.028 -0.35 0.046c-0.024,-0.03 -0.03,-0.117 -0.035,-0.162 -0.004,-0.043 -0.035,-0.14 0.015,-0.148zm-0.002 2.038c0.076,0.073 0.097,0.109 0.224,0.094 0.124,-0.015 0.549,-0.069 0.646,-0.101 0.123,-0.04 0.112,-0.098 0.148,-0.184l-0.173 -1.181c-0.039,-0.043 -0.011,-0.129 -0.037,-0.178 -0.046,-0.155 -0.172,-0.188 -0.252,-0.236 -0.064,-0.385 -0.015,-0.375 -0.191,-0.37l-0.032 -0.216c0.081,-0.034 0.316,-0.003 0.252,-0.147 -0.038,-0.088 -0.238,-0.03 -0.316,-0.021 -0.513,0.064 -0.252,0.075 -0.245,0.435 -0.203,0.065 -0.08,0.112 -0.068,0.41 -0.095,0.094 -0.162,0.147 -0.171,0.296 -0.007,0.113 0.042,0.347 0.061,0.469 0.046,0.295 0.082,0.647 0.154,0.93z"/>
  <path class="fil2" d="M0.421 2.236c0.07,0.039 0.461,-0.038 0.535,-0.085l-0.115 -0.779 -0.503 0.073c-0.062,0.015 -0.031,0.076 -0.023,0.133 0.013,0.093 0.081,0.616 0.106,0.658z"/>
  <path class="fil3" d="M0.356 2.258l-0.041 0.021c0.005,0.034 0.01,0.069 0.015,0.103 0.006,0.037 0.023,0.076 -0.013,0.082 0.033,0.086 0.151,0.044 0.233,0.033 0.091,-0.013 0.177,-0.034 0.269,-0.049 0.106,-0.018 0.141,-0.028 0.228,-0.079 0.081,-0.047 0.069,-0.117 0.046,-0.207l-0.077 0.01c-0.01,-0.102 -0.086,-0.76 -0.121,-0.798 0.017,0.079 0.118,0.746 0.111,0.788 -0.017,0.109 -0.393,0.126 -0.508,0.137 -0.102,0.009 -0.071,0.015 -0.142,-0.041z"/>
  <path class="fil4" d="M0.421 2.236c-0.025,-0.042 -0.093,-0.565 -0.106,-0.658 -0.008,-0.057 -0.039,-0.118 0.023,-0.133l0.503 -0.073 0.115 0.779c-0.074,0.047 -0.465,0.124 -0.535,0.085zm-0.18 -0.78l0.115 0.802c0.071,0.056 0.04,0.05 0.142,0.041 0.115,-0.011 0.491,-0.028 0.508,-0.137 0.007,-0.042 -0.094,-0.709 -0.111,-0.788l-0.009 -0.032c-0.075,-0.04 -0.067,-0.03 -0.161,-0.01 -0.106,0.022 -0.257,0.045 -0.365,0.052 -0.095,0.007 -0.073,0.021 -0.119,0.072z"/>
  <path class="fil5" d="M0.588 0.793c0.018,-0.017 0.023,-0.017 0.031,-0.021 -0.026,-0.049 -0.003,-0.094 -0.017,-0.151 -0.006,-0.027 -0.018,-0.052 -0.021,-0.081 -0.006,-0.063 0.014,-0.037 0.014,-0.061l-0.377 0.05c-0.05,0.008 -0.019,0.105 -0.015,0.148 0.005,0.045 0.011,0.132 0.035,0.162l0.35 -0.046z"/>
  <path class="fil6" d="M0.219 2.291c0.02,0.107 0.01,0.268 0.133,0.308 0.062,0.021 0.306,-0.027 0.386,-0.038 0.09,-0.012 0.304,-0.03 0.373,-0.08 0.1,-0.074 0.049,-0.222 0.034,-0.329l-0.052 0.01c0.023,0.09 0.035,0.16 -0.046,0.207 -0.087,0.051 -0.122,0.061 -0.228,0.079 -0.092,0.015 -0.178,0.036 -0.269,0.049 -0.082,0.011 -0.2,0.053 -0.233,-0.033l-0.036 -0.182 -0.062 0.009z"/>
  <path class="fil7" d="M0.498 0.25c-0.013,-0.015 -0.011,-0.033 -0.014,-0.056l-0.21 0.027 0.026 0.234 0.22 -0.032 -0.022 -0.173zm-0.264 1.794c0.002,0.013 0.004,0.027 0.006,0.041 -0.002,-0.014 -0.004,-0.028 -0.006,-0.041zm0.016 0.098c0.002,0.015 0.005,0.03 0.008,0.045 -0.003,-0.015 -0.006,-0.03 -0.008,-0.045zm0.031 0.14l0.036 0.182c0.036,-0.006 0.019,-0.045 0.013,-0.082 -0.005,-0.034 -0.01,-0.069 -0.015,-0.103l0.041 -0.021 -0.115 -0.802 0 0c0.046,-0.051 0.024,-0.065 0.119,-0.072 0.108,-0.007 0.259,-0.03 0.365,-0.052 0.094,-0.02 0.086,-0.03 0.161,0.01 0.004,-0.033 0.051,0.01 0.024,-0.118 -0.013,-0.059 -0.016,-0.11 -0.024,-0.169 0.051,0.033 0.078,0.328 0.09,0.413 0.009,0.067 -0.043,0.158 0.01,0.276 0.028,0.064 0.042,0.025 0.056,0.109 0.016,0.101 0.023,0.212 0.051,0.309l0.051 -0.01c-0.033,-0.208 -0.061,-0.419 -0.092,-0.628 -0.021,-0.147 -0.044,-0.462 -0.131,-0.571 -0.015,-0.021 -0.039,-0.043 -0.057,-0.058 -0.01,-0.009 -0.019,-0.014 -0.03,-0.021 -0.024,-0.014 -0.017,-0.011 -0.039,-0.015 -0.057,-0.052 -0.159,-0.014 -0.228,-0.004 -0.088,0.013 -0.182,0.027 -0.271,0.037 -0.141,0.017 -0.241,0.176 -0.237,0.313 0.006,0.16 0.055,0.383 0.08,0.548 0.026,0.166 0.068,0.374 0.08,0.538l0.062 -0.009 0 0zm-0.052 -0.84c0,-0.001 -0.001,-0.001 -0.001,-0.001 0,0 0.001,0 0.001,0.001zm-0.046 -0.225c-0.022,0.032 0.031,0.195 -0.003,0.269l-0.024 -0.064c-0.01,-0.084 -0.049,-0.23 -0.025,-0.307 0.017,-0.057 0.097,-0.187 0.161,-0.108 -0.018,0.054 -0.127,0.079 -0.109,0.21z"/>
  <path class="fil8" d="M0.886 1.342l0.009 0.032c0.035,0.038 0.111,0.696 0.121,0.798l0.077 -0.01c-0.028,-0.097 -0.035,-0.208 -0.051,-0.309 -0.014,-0.084 -0.028,-0.045 -0.056,-0.109 -0.053,-0.118 -0.001,-0.209 -0.01,-0.276 -0.012,-0.085 -0.039,-0.38 -0.09,-0.413 0.008,0.059 0.011,0.11 0.024,0.169 0.026,0.128 -0.02,0.085 -0.024,0.118z"/>
  <path class="fil9" d="M0.588 0.793l0.12 -0.028c0.005,-0.048 -0.028,-0.24 -0.044,-0.291 -0.038,-0.019 -0.428,0.037 -0.446,0.055l0.377 -0.05c0,0.024 -0.02,-0.002 -0.014,0.061 0.003,0.029 0.015,0.054 0.021,0.081 0.014,0.057 -0.009,0.102 0.017,0.151 -0.008,0.004 -0.013,0.004 -0.031,0.021z"/>
  <path class="fil10" d="M0.156 1.422l0.024 0.064c0.034,-0.074 -0.019,-0.237 0.003,-0.269 -0.018,-0.131 0.091,-0.156 0.109,-0.21 -0.064,-0.079 -0.144,0.051 -0.161,0.108 -0.024,0.077 0.015,0.223 0.025,0.307z"/>
  <path class="fil11" d="M0.687 0.111c0.02,-0.003 0.087,-0.012 0.051,-0.044 -0.043,-0.029 -0.128,0.001 -0.178,0.008 -0.047,0.006 -0.085,0.012 -0.132,0.021 -0.045,0.008 -0.158,0.015 -0.19,0.034 -0.044,0.029 0.03,0.048 0.037,0.074 0.005,0.018 -0.008,0.019 0.026,0.014 0.032,-0.004 0.145,-0.024 0.169,-0.02 0.011,0.002 0.012,0.004 0.015,0.016 0.005,0.016 0.017,0.062 0.013,0.011 -0.004,-0.045 -0.033,-0.042 0.014,-0.071 0.024,-0.015 0.05,-0.026 0.078,-0.032 0.032,-0.005 0.065,-0.006 0.097,-0.011z"/>
  <path class="fil12" d="M0.675 0.835l0.01 0.066c0.149,0.197 0.14,1.015 0.303,1.085 0.032,-0.013 0.035,-0.04 0.049,-0.069 0.029,-0.062 0.043,-0.016 0.067,-0.028 0.003,-0.039 -0.009,-0.039 0.013,-0.065l0.043 -0.069c0.007,-0.058 0.033,-0.074 0.057,-0.121 0.014,-0.028 0.041,-0.092 0.056,-0.113 0.022,-0.109 0.084,-0.557 0.175,-0.646l-0.003 -0.005c0.027,-0.034 0.026,-0.102 0.017,-0.145l-0.794 -0.005 0.007 0.115z"/>
  <path class="fil13" d="M0.899 2.284l0.128 -0.001c0.031,0.021 0.009,0.118 0.015,0.159 0.004,0.03 0.033,0.114 0.028,0.133 -0.051,0.003 -0.212,0.021 -0.231,-0.033 -0.009,-0.027 -0.007,-0.227 -0.005,-0.266l0.065 0.008zm0.264 -0.234c0.212,0.014 0.462,0.002 0.677,0 0.099,0 0.23,-0.035 0.26,0.076 0.008,0.029 0.006,0.288 0.001,0.328 -0.01,0.098 -0.062,0.164 -0.164,0.17l-0.671 0c-0.11,-0.005 -0.164,-0.071 -0.169,-0.176 -0.012,-0.036 -0.005,-0.183 -0.005,-0.23 0,-0.053 -0.003,-0.161 0.071,-0.168zm0.017 -0.229l0.013 -0.02c0.032,-0.017 0.094,-0.01 0.131,-0.01 0.123,0.001 0.245,0.002 0.368,0.003 0.053,0 0.317,-0.022 0.332,0.018 0.027,0.018 0.022,0.147 0.011,0.18 -0.035,0.016 -0.752,0.017 -0.775,0.004l-0.084 -0.003c-0.022,-0.027 -0.021,-0.151 0.004,-0.172zm0.454 -0.081l-0.342 -0.007c-0.052,-0.111 0.15,-0.151 0.248,-0.229 0.042,-0.035 0.039,-0.064 0.068,-0.094 0.072,0.016 0.113,0.17 0.139,0.191 0.045,0.013 0.033,-0.027 0.099,0.011 0.027,0.016 0.053,0.034 0.056,0.066 0.016,0.014 0.021,0.032 0.009,0.054 -0.03,0.014 -0.229,0.008 -0.277,0.008zm-0.189 -0.87l0.003 0.005c-0.011,0.113 -0.027,0.225 -0.038,0.338 -0.006,0.054 -0.019,0.304 -0.047,0.327 -0.001,0.001 -0.074,0.053 -0.091,0.071 -0.043,0.044 -0.031,0.07 -0.036,0.123l-0.076 0.021 -0.043 0.069c-0.002,0.062 -0.011,0.132 0.009,0.19 -0.08,0.033 -0.089,0.131 -0.086,0.211 -0.248,0.009 -0.214,0.038 -0.237,-0.182 -0.013,-0.127 -0.025,-0.257 -0.036,-0.384 -0.022,-0.252 -0.06,-0.507 -0.082,-0.758l-0.01 -0.066 -0.007 -0.115 0.794 0.005c0.009,0.043 0.01,0.111 -0.017,0.145zm-0.685 1.281c0.006,0.061 0.041,0.121 0.019,0.243 0.054,0.085 -0.093,0.235 0.19,0.234 0.061,-0.001 0.136,-0.016 0.187,0.016 0.053,0.034 0.126,0.031 0.187,0.032 0.142,0.002 0.285,0.001 0.426,0 0.177,-0.001 0.214,0.027 0.341,-0.094 0.056,-0.099 0.047,-0.181 0.046,-0.293 0,-0.133 0.021,-0.182 -0.073,-0.274 0.012,-0.049 0.014,-0.137 0.007,-0.189 -0.011,-0.073 -0.059,-0.084 -0.123,-0.09 -0.011,-0.058 0.001,-0.096 -0.053,-0.14 -0.056,-0.046 -0.068,-0.049 -0.143,-0.052 -0.035,-0.053 -0.067,-0.165 -0.151,-0.18 -0.089,-0.015 -0.068,0.124 -0.185,0.144 0.001,-0.171 0.036,-0.4 0.059,-0.574 0.007,-0.059 0.054,-0.24 -0.018,-0.263 -0.03,-0.009 -0.553,-0.004 -0.63,-0.004 -0.104,0 -0.234,-0.039 -0.23,0.092 0.04,0.524 0.095,0.868 0.144,1.392z"/>
  <path class="fil2" d="M1.346 2.468c0.022,-0.014 0.501,-0.018 0.522,-0.006 0,0.052 -0.063,0.039 -0.105,0.039 -0.047,0 -0.095,0.001 -0.142,0.001 -0.048,0 -0.246,0.009 -0.274,-0.014 -0.074,-0.024 -0.071,-0.054 -0.075,-0.128 -0.006,-0.111 -0.008,-0.147 0.054,-0.145 0.001,0.04 -0.031,0.247 0.02,0.253zm0.52 -0.286c0.065,0.023 0.064,0.078 0.064,0.139 0,0.041 0.019,0.163 -0.049,0.137 -0.019,-0.027 -0.005,-0.081 -0.004,-0.118 0.001,-0.042 -0.003,-0.081 -0.004,-0.124l-0.015 -0.003c-0.066,0.01 -0.471,0.016 -0.517,-0.005 -0.011,-0.053 0.063,-0.037 0.106,-0.037 0.083,0 0.385,-0.01 0.419,0.011zm-0.769 0.266c0.106,0.095 0.162,0.094 0.295,0.127 0.121,0.031 0.258,0.037 0.38,0.002 0.115,-0.033 0.213,-0.036 0.258,-0.164 0.014,-0.04 0.019,-0.255 0.002,-0.297 -0.005,-0.012 -0.012,-0.024 -0.011,-0.038 0,-0.02 -0.006,0 0.004,-0.012 0.021,-0.026 0.021,0.013 0.009,-0.006 -0.085,0.011 -0.51,0.003 -0.652,0.003 -0.059,0 -0.178,0.018 -0.219,-0.013 -0.074,0.007 -0.071,0.115 -0.071,0.168 0,0.047 -0.007,0.194 0.005,0.23z"/>
  <path class="fil14" d="M1.117 1.824c-0.022,0.026 -0.01,0.026 -0.013,0.065 -0.024,0.012 -0.038,-0.034 -0.067,0.028 -0.014,0.029 -0.017,0.056 -0.049,0.069 -0.163,-0.07 -0.154,-0.888 -0.303,-1.085 0.022,0.251 0.06,0.506 0.082,0.758 0.011,0.127 0.023,0.257 0.036,0.384 0.023,0.22 -0.011,0.191 0.237,0.182 -0.003,-0.08 0.006,-0.178 0.086,-0.211 -0.02,-0.058 -0.011,-0.128 -0.009,-0.19z"/>
  <path class="fil15" d="M1.193 1.801l-0.013 0.02c-0.025,0.021 -0.026,0.145 -0.004,0.172l0.084 0.003c0.044,-0.012 0.271,-0.004 0.335,-0.004 0.052,0 0.114,0.009 0.153,-0.006 0.039,-0.015 0.115,-0.021 0.137,-0.039 0.055,-0.008 0.146,-0.084 0.139,-0.135 -0.015,-0.04 -0.279,-0.018 -0.332,-0.018 -0.123,-0.001 -0.245,-0.002 -0.368,-0.003 0.029,0.015 0.029,0.006 0.056,0.013 0.021,0.006 0.011,0.008 0.027,0.02 0.029,0.021 0.057,0.004 0.074,0.032 -0.04,0.023 -0.108,0.003 -0.15,-0.011 -0.107,-0.037 -0.134,0.006 -0.138,-0.044z"/>
  <path class="fil2" d="M1.634 1.74c0.017,-0.014 0.017,-0.008 0.042,-0.015 0.023,-0.006 0.113,-0.058 0.163,-0.061 0.048,-0.003 0.038,-0.006 0.06,0.031l0.003 -0.017c-0.003,-0.032 -0.029,-0.05 -0.056,-0.066 -0.066,-0.038 -0.054,0.002 -0.099,-0.011 -0.026,-0.021 -0.067,-0.175 -0.139,-0.191 -0.029,0.03 -0.026,0.059 -0.068,0.094 -0.098,0.078 -0.3,0.118 -0.248,0.229l0.342 0.007z"/>
  <path class="fil16" d="M1.097 2.448c0.005,0.105 0.059,0.171 0.169,0.176l0.671 0c0.102,-0.006 0.154,-0.072 0.164,-0.17 0.005,-0.04 0.007,-0.299 -0.001,-0.328 -0.03,-0.111 -0.161,-0.076 -0.26,-0.076 -0.215,0.002 -0.465,0.014 -0.677,0 0.041,0.031 0.16,0.013 0.219,0.013 0.142,0 0.567,0.008 0.652,-0.003 0.012,0.019 0.012,-0.02 -0.009,0.006 -0.01,0.012 -0.004,-0.008 -0.004,0.012 -0.001,0.014 0.006,0.026 0.011,0.038 0.017,0.042 0.012,0.257 -0.002,0.297 -0.045,0.128 -0.143,0.131 -0.258,0.164 -0.122,0.035 -0.259,0.029 -0.38,-0.002 -0.133,-0.033 -0.189,-0.032 -0.295,-0.127z"/>
  <path class="fil14" d="M1.363 1.54c0.028,-0.023 0.041,-0.273 0.047,-0.327 0.011,-0.112 0.027,-0.225 0.038,-0.338 -0.091,0.089 -0.153,0.537 -0.175,0.646 -0.015,0.021 -0.042,0.085 -0.056,0.113 -0.024,0.047 -0.05,0.063 -0.057,0.121l0.076 -0.021c0.005,-0.053 -0.007,-0.079 0.036,-0.123 0.017,-0.018 0.09,-0.07 0.091,-0.071z"/>
  <path class="fil17" d="M1.027 2.283l-0.128 0.001 -0.059 -0.001 0.003 0.246 0.129 -0.049c0.007,-0.066 -0.019,-0.155 0.057,-0.174l-0.002 -0.023z"/>
  <path class="fil5" d="M1.027 2.283l0.002 0.023c-0.076,0.019 -0.05,0.108 -0.057,0.174l-0.129 0.049 -0.003 -0.246 0.059 0.001 -0.065 -0.008c-0.002,0.039 -0.004,0.239 0.005,0.266 0.019,0.054 0.18,0.036 0.231,0.033 0.005,-0.019 -0.024,-0.103 -0.028,-0.133 -0.006,-0.041 0.016,-0.138 -0.015,-0.159z"/>
  <path class="fil18" d="M1.885 1.947c-0.022,0.018 -0.098,0.024 -0.137,0.039 -0.039,0.015 -0.101,0.006 -0.153,0.006 -0.064,0 -0.291,-0.008 -0.335,0.004 0.023,0.013 0.74,0.012 0.775,-0.004 0.011,-0.033 0.016,-0.162 -0.011,-0.18 0.007,0.051 -0.084,0.127 -0.139,0.135z"/>
  <path class="fil19" d="M1.634 1.74c0.048,0 0.247,0.006 0.277,-0.008 0.012,-0.022 0.007,-0.04 -0.009,-0.054l-0.003 0.017c-0.022,-0.037 -0.012,-0.034 -0.06,-0.031 -0.05,0.003 -0.14,0.055 -0.163,0.061 -0.025,0.007 -0.025,0.001 -0.042,0.015z"/>
  <path class="fil20" d="M1.346 2.468c-0.051,-0.006 -0.019,-0.213 -0.02,-0.253 -0.062,-0.002 -0.06,0.034 -0.054,0.145 0.004,0.074 0.001,0.104 0.075,0.128 0.028,0.023 0.226,0.014 0.274,0.014 0.047,0 0.095,-0.001 0.142,-0.001 0.042,0 0.105,0.013 0.105,-0.039 -0.021,-0.012 -0.5,-0.008 -0.522,0.006zm0.512 -0.255l0.015 0.003c0.001,0.043 0.005,0.082 0.004,0.124 -0.001,0.037 -0.015,0.091 0.004,0.118 0.068,0.026 0.049,-0.096 0.049,-0.137 0,-0.061 0.001,-0.116 -0.064,-0.139 -0.034,-0.021 -0.336,-0.011 -0.419,-0.011 -0.043,0 -0.117,-0.016 -0.106,0.037 0.046,0.021 0.451,0.015 0.517,0.005z"/>
  <path class="fil12" d="M1.193 1.801c0.004,0.05 0.031,0.007 0.138,0.044 0.042,0.014 0.11,0.034 0.15,0.011 -0.017,-0.028 -0.045,-0.011 -0.074,-0.032 -0.016,-0.012 -0.006,-0.014 -0.027,-0.02 -0.027,-0.007 -0.027,0.002 -0.056,-0.013 -0.037,0 -0.099,-0.007 -0.131,0.01z"/>
 </g>
</svg>
